<?xml version="1.0" encoding="utf-8"?>
<!-- Generated by IcoMoon.io -->
<!DOCTYPE svg PUBLIC "-//W3C//DTD SVG 1.1//EN" "http://www.w3.org/Graphics/SVG/1.1/DTD/svg11.dtd">
<svg version="1.1" xmlns="http://www.w3.org/2000/svg" xmlns:xlink="http://www.w3.org/1999/xlink" width="37" height="42" viewBox="0 0 37 42">
<path fill="#f6921e" d="M36.6 34.9l-26.5 5.7-8.5-34.3 30-5.3z"></path>
<path fill="#fff" d="M26 20.1c-0.1 0.7-0.7 1.1-1.7 1.2l-0.9 0.2-4.2 0.8-2.9 11.4c-0.1 0.2-0.3 0.5-0.5 0.5l-2.8 0.5 3.1-12c-2.5-0.2-4.8-1.3-5.4-4.2l-0.7-3.1c-0.6-3.3 1.5-5.7 4.5-6.3l10.2-2c1-0.2 2 0.5 2.3 1.5l4.3 22.5-2.6 0.5c-0.2 0-0.5-0.1-0.5-0.3l-2.2-11.2zM25 18.3c0.3-0.1 0.6-0.4 0.5-0.7l-1.3-6.8c-0.1-0.3-0.4-0.6-0.7-0.5l-8.4 1.6c-1.4 0.3-2.3 1.6-2 2.9l0.6 3.1c0.3 1.4 1.6 2.3 2.9 2l8.4-1.6z"></path>
</svg>
