<?xml version="1.0" encoding="utf-8"?>
<!-- Generator: Adobe Illustrator 19.0.0, SVG Export Plug-In . SVG Version: 6.00 Build 0)  -->
<svg version="1.1" id="Livello_1" xmlns="http://www.w3.org/2000/svg" xmlns:xlink="http://www.w3.org/1999/xlink" x="0px" y="0px"
	 viewBox="0 0 200 200" style="enable-background:new 0 0 200 200;" xml:space="preserve">
<style type="text/css">
	.st0{fill:#F6921E;}
	.st1{fill:#FFFFFF;stroke:#FFFFFF;stroke-miterlimit:10;}
</style>
<g id="XMLID_4_">
	<polygon id="XMLID_3_" class="st0" points="186.7,169.7 55.4,198 13.3,28 162,2 	"/>
	<path class="st1" d="M133.9,96.5c-0.5,3.3-3.7,5.2-8.2,6.1l-4.7,0.9l-20.6,4L85.9,164c-0.3,1.1-1.4,2.3-2.5,2.5l-14,2.7l15.3-59.4
		c-12.4-0.8-24-6.6-26.7-20.8l-3-15.6C51.7,56.9,62.1,45,77.3,42.1l50.6-9.8c5.2-1,10.2,2.4,11.2,7.5l21.5,111.7l-13.1,2.5
		c-1.1,0.2-2.3-0.6-2.5-1.7l-10.8-55.9L133.9,96.5z M129.3,87.5c1.6-0.3,2.8-1.9,2.5-3.7l-6.5-33.5c-0.3-1.6-1.9-2.8-3.7-2.5
		l-41.7,8c-6.8,1.3-11.2,7.8-9.9,14.6L73,85.7c1.3,6.8,7.8,11.2,14.6,9.9L129.3,87.5z"/>
</g>
</svg>
